<svg id="svg" version="1.1" width="400" height="400" xmlns="http://www.w3.org/2000/svg" xmlns:xlink="http://www.w3.org/1999/xlink" style="display: block;"><g id="svgg"><path id="path0" d="M223.717 104.004 C 215.328 105.827,210.172 111.501,208.206 121.073 C 208.011 122.021,207.809 122.146,206.473 122.146 C 199.208 122.146,191.017 129.123,189.179 136.878 C 188.568 139.454,188.564 139.453,186.956 136.076 C 180.709 122.957,160.880 121.418,153.293 133.463 L 152.678 134.439 151.168 133.539 C 138.221 125.824,121.791 126.405,109.051 135.027 L 106.296 136.891 105.218 134.973 C 99.236 124.332,87.104 116.777,74.341 115.747 C 69.711 115.374,48.203 117.174,44.850 118.216 C 37.830 120.397,32.918 125.983,31.378 133.537 C 30.575 137.471,34.893 194.090,36.318 198.320 C 41.713 214.334,63.591 217.086,71.945 202.801 L 73.448 200.230 76.215 202.611 C 81.179 206.883,84.756 208.573,89.963 209.106 L 92.508 209.366 90.892 211.512 C 87.085 216.571,84.541 223.438,83.832 230.570 C 83.230 236.626,86.120 275.963,87.460 279.939 C 92.207 294.030,110.485 298.695,120.870 288.467 L 122.732 286.634 125.196 288.289 C 133.171 293.645,144.962 292.414,150.829 285.612 L 152.000 284.255 154.442 285.918 C 163.495 292.081,177.577 289.326,182.516 280.426 C 182.907 279.722,183.098 279.778,186.001 281.433 C 199.277 289.000,217.298 287.725,228.293 278.441 C 231.746 275.525,231.550 275.548,233.897 277.768 C 239.404 282.976,242.826 283.531,260.820 282.135 C 274.222 281.094,277.954 280.160,283.553 276.444 C 285.343 275.255,285.865 275.071,286.386 275.442 C 293.109 280.230,301.935 280.555,308.838 276.270 C 310.742 275.087,310.754 275.085,312.350 275.728 C 313.231 276.083,315.005 276.590,316.293 276.854 L 318.634 277.334 318.862 279.678 C 319.655 287.846,328.259 293.641,336.175 291.340 C 342.553 289.485,346.965 283.420,346.451 277.213 L 346.277 275.122 348.862 275.122 C 367.713 275.122,375.912 252.280,361.546 239.784 C 360.079 238.507,358.278 236.929,357.543 236.276 L 356.208 235.088 359.366 231.399 C 367.443 221.963,368.160 212.286,361.411 203.798 C 355.305 196.119,346.345 194.536,335.755 199.265 C 335.492 199.382,335.206 198.863,335.044 197.975 C 334.334 194.087,330.652 188.633,326.924 185.946 L 325.848 185.171 326.990 183.501 C 329.626 179.645,330.890 172.504,329.605 168.731 C 329.226 167.619,329.115 166.783,329.336 166.709 C 338.973 163.497,342.075 149.753,336.022 137.090 C 324.795 113.604,295.399 107.509,275.846 124.615 L 272.472 127.567 271.074 125.461 C 266.912 119.192,258.649 116.505,248.356 118.072 C 247.237 118.242,247.118 118.145,246.687 116.705 C 244.038 107.865,233.294 101.924,223.717 104.004 M230.381 115.990 C 234.032 117.084,235.490 119.849,236.049 126.740 C 236.228 128.944,236.464 130.838,236.574 130.948 C 236.684 131.058,241.147 130.794,246.491 130.361 C 253.499 129.793,256.602 129.682,257.620 129.963 C 262.600 131.338,264.411 137.681,261.004 141.815 C 259.032 144.206,258.364 144.378,247.670 145.239 C 242.271 145.674,237.789 146.092,237.710 146.167 C 237.170 146.680,238.841 160.444,239.632 161.997 C 243.655 169.896,252.929 171.701,259.303 165.825 C 263.152 162.277,267.609 162.237,270.902 165.720 C 274.186 169.194,273.238 173.559,268.306 177.675 C 253.090 190.371,229.035 182.755,224.193 163.707 C 223.864 162.413,222.894 152.506,222.024 141.562 L 220.450 121.759 221.203 120.057 C 222.729 116.606,226.646 114.871,230.381 115.990 M305.870 127.446 C 317.685 129.871,327.780 141.032,327.800 151.694 C 327.811 157.192,326.406 157.708,307.373 159.192 C 299.247 159.826,292.501 160.442,292.382 160.562 C 292.078 160.865,295.177 163.752,296.696 164.581 C 299.001 165.838,304.436 165.541,307.404 163.996 C 316.358 159.333,323.537 170.187,315.368 176.036 C 302.986 184.902,283.742 178.867,277.003 164.006 C 268.543 145.348,285.911 123.351,305.870 127.446 M78.244 128.634 C 98.428 133.752,105.015 159.083,89.979 173.759 C 88.638 175.068,87.818 176.152,88.028 176.340 C 88.227 176.517,90.371 178.287,92.792 180.273 C 100.174 186.326,100.964 192.084,94.899 195.638 C 91.179 197.817,89.326 196.959,79.024 188.282 L 70.829 181.380 66.558 181.628 C 61.386 181.929,61.937 181.140,62.466 187.493 C 62.862 192.247,62.839 193.034,62.260 194.550 C 60.030 200.388,51.584 201.007,48.793 195.537 C 48.043 194.066,43.738 145.044,43.663 137.110 C 43.632 133.849,45.002 131.514,47.804 130.051 C 50.915 128.428,73.318 127.385,78.244 128.634 M211.238 134.771 C 215.006 136.345,215.489 137.914,216.580 152.092 C 217.849 168.586,216.560 173.702,209.333 180.868 C 195.149 194.932,171.355 189.379,165.059 170.537 C 163.893 167.049,162.017 144.671,162.699 142.394 C 164.251 137.214,170.254 135.476,174.307 139.035 C 176.528 140.985,176.753 141.973,177.741 154.128 C 178.752 166.555,179.052 167.709,182.059 170.716 C 188.257 176.914,199.394 174.324,201.993 166.080 C 202.668 163.937,202.662 163.535,201.796 152.398 C 201.305 146.087,201.017 140.408,201.155 139.778 C 202.064 135.640,207.206 133.086,211.238 134.771 M137.756 140.942 C 146.505 142.986,154.804 151.154,157.064 159.943 C 157.968 163.463,159.648 184.611,159.162 186.370 C 157.725 191.574,150.905 193.442,147.129 189.666 C 146.413 188.950,146.330 188.967,143.345 190.470 C 121.437 201.495,97.324 179.230,106.797 156.724 C 111.906 144.585,124.931 137.946,137.756 140.942 M298.664 141.655 C 295.773 142.264,292.970 144.399,291.531 147.087 C 290.995 148.089,290.077 148.072,300.878 147.266 C 310.810 146.525,310.742 146.546,309.086 144.660 C 306.821 142.080,302.526 140.841,298.664 141.655 M63.052 143.278 C 60.921 143.466,59.137 143.661,59.088 143.712 C 58.927 143.880,60.828 166.714,61.019 166.905 C 61.559 167.445,74.447 165.917,76.381 165.083 C 85.249 161.262,85.581 148.582,76.929 144.103 C 74.190 142.685,71.558 142.529,63.052 143.278 M124.643 159.512 C 124.770 160.746,125.156 165.795,125.501 170.732 C 125.846 175.668,126.175 179.757,126.231 179.817 C 126.287 179.877,130.666 176.914,135.963 173.231 C 141.259 169.549,145.542 166.495,145.479 166.446 C 145.134 166.173,125.009 157.268,124.737 157.268 C 124.558 157.268,124.515 158.278,124.643 159.512 M318.739 195.336 C 322.873 197.063,323.051 197.649,324.344 213.829 C 324.953 221.441,325.506 227.835,325.573 228.038 C 325.641 228.240,329.261 224.250,333.618 219.169 C 337.975 214.089,342.005 209.698,342.575 209.412 C 347.688 206.843,353.561 210.414,353.561 216.091 C 353.561 218.703,353.070 219.444,345.441 228.342 C 339.997 234.690,338.785 236.310,339.197 236.689 C 339.477 236.947,343.178 240.093,347.420 243.679 C 355.670 250.653,356.690 251.891,356.674 254.911 C 356.656 258.534,354.268 261.355,350.517 262.188 C 347.109 262.944,347.041 262.902,335.078 252.769 C 330.814 249.157,327.237 246.292,327.127 246.401 C 327.018 246.510,327.129 249.110,327.374 252.178 C 327.863 258.316,327.692 259.539,326.042 261.702 C 322.899 265.823,316.288 265.307,313.617 260.734 C 312.512 258.841,308.009 202.928,308.744 200.222 C 309.882 196.036,314.736 193.663,318.739 195.336 M297.819 198.200 C 304.168 202.226,300.808 212.260,293.404 211.383 C 289.368 210.905,287.041 208.305,287.030 204.262 C 287.016 198.552,293.038 195.168,297.819 198.200 M152.273 208.428 C 160.075 210.043,167.424 217.163,169.574 225.188 C 170.276 227.808,173.367 265.672,173.191 269.500 C 172.911 275.599,166.715 278.774,161.644 275.418 C 158.689 273.463,158.682 273.425,156.902 250.537 C 155.805 236.440,155.119 229.537,154.702 228.408 C 152.568 222.634,144.317 222.456,141.563 228.125 L 140.733 229.832 142.401 251.041 C 144.289 275.061,144.312 274.406,141.496 277.001 C 138.864 279.427,135.314 279.704,132.312 277.718 C 129.394 275.786,129.372 275.673,127.617 253.070 C 125.937 231.435,125.815 230.563,124.203 228.647 C 120.620 224.389,112.777 226.313,111.761 231.699 C 111.599 232.555,112.162 241.818,113.107 253.854 C 114.862 276.208,114.861 276.322,112.879 278.678 C 109.108 283.159,101.352 281.542,99.948 275.982 C 98.828 271.544,96.241 231.664,96.875 228.600 C 100.004 213.469,115.074 206.225,129.065 213.125 L 132.277 214.709 133.943 213.279 C 138.809 209.104,146.151 207.161,152.273 208.428 M297.433 214.016 C 298.884 214.333,300.768 216.011,301.681 217.800 C 302.562 219.527,305.901 258.553,305.397 261.237 C 304.273 267.230,295.309 268.452,292.313 263.022 C 290.680 260.061,287.654 220.300,288.883 217.946 C 290.151 215.516,294.109 213.143,296.000 213.678 C 296.215 213.739,296.860 213.891,297.433 214.016 M275.094 215.708 C 279.339 217.872,280.353 223.266,277.176 226.783 C 275.149 229.026,274.928 229.078,263.328 230.028 C 251.589 230.990,251.317 231.076,251.317 233.808 C 251.317 236.528,252.010 236.694,260.862 236.099 C 271.684 235.371,274.142 235.942,278.641 240.234 C 287.966 249.128,284.768 263.718,272.585 267.858 C 269.055 269.057,246.913 270.652,244.830 269.856 C 240.483 268.196,239.031 262.949,241.825 258.994 C 243.726 256.304,244.437 256.118,256.392 255.186 C 269.324 254.177,269.920 253.967,269.101 250.703 C 268.676 249.012,267.894 248.918,259.771 249.590 C 249.393 250.448,246.627 249.733,241.973 244.985 C 234.334 237.192,236.277 223.671,245.761 218.618 C 248.954 216.917,250.559 216.605,260.141 215.822 C 271.594 214.886,273.454 214.871,275.094 215.708 M225.772 219.660 C 229.567 221.384,229.996 222.676,231.007 235.412 C 232.195 250.368,232.015 252.538,229.101 258.486 C 218.608 279.902,186.803 277.975,179.695 255.494 C 178.467 251.611,176.536 229.797,177.205 227.374 C 178.752 221.771,186.005 220.278,189.794 224.781 C 191.282 226.549,191.509 227.826,192.393 239.408 C 193.090 248.542,193.316 250.199,194.101 251.913 C 199.406 263.501,216.954 260.185,216.972 247.592 C 216.974 246.079,216.626 240.526,216.198 235.252 C 215.593 227.800,215.518 225.368,215.861 224.343 C 217.326 219.968,221.798 217.855,225.772 219.660 M355.272 282.893 C 350.361 285.123,349.797 292.266,354.293 295.296 C 356.742 296.946,359.745 296.947,362.191 295.298 C 369.535 290.349,363.334 279.232,355.272 282.893 " stroke="none" fill="#ffffff" fill-rule="evenodd"></path><path id="path1" d="M71.415 0.350 C 71.093 0.531,69.890 0.798,68.743 0.943 C 36.629 5.015,8.474 33.376,1.213 68.968 L 0.000 74.911 0.000 200.000 L 0.000 325.089 1.213 331.032 C 8.406 366.290,32.673 391.371,66.732 398.748 L 71.610 399.805 200.000 399.805 L 328.390 399.805 333.268 398.748 C 367.327 391.371,391.594 366.290,398.787 331.032 L 400.000 325.089 400.000 200.000 L 400.000 74.911 398.787 68.968 C 391.479 33.147,366.823 8.129,331.707 0.904 C 328.076 0.157,72.729 -0.386,71.415 0.350 M233.393 104.037 C 239.077 105.707,243.207 109.147,245.840 114.408 L 247.468 117.659 252.855 117.519 C 261.664 117.291,267.462 119.705,271.230 125.171 L 272.552 127.088 275.769 124.317 C 295.512 107.310,324.838 113.329,336.191 136.718 C 342.414 149.538,339.378 163.492,329.662 166.731 C 329.455 166.800,329.590 167.757,329.969 168.918 C 331.201 172.683,329.841 179.878,327.155 183.805 L 326.221 185.171 327.111 185.734 C 330.170 187.672,335.201 194.931,335.225 197.443 C 335.240 198.911,335.796 199.052,337.784 198.093 C 347.466 193.423,359.303 197.746,364.124 207.713 C 368.176 216.090,366.666 223.348,359.024 232.227 L 356.571 235.077 358.871 237.031 C 367.674 244.510,370.606 251.155,368.809 259.555 C 366.887 268.538,357.419 275.992,348.621 275.448 L 346.500 275.317 346.745 276.763 C 347.551 281.528,343.908 288.108,339.122 290.532 C 330.293 295.003,319.555 289.333,318.558 279.675 C 318.367 277.828,318.206 277.463,317.575 277.463 C 317.160 277.463,315.491 277.017,313.865 276.471 L 310.910 275.479 307.357 277.255 C 300.306 280.780,292.391 280.250,286.396 275.851 C 285.880 275.472,285.249 275.711,282.883 277.180 C 277.171 280.727,274.203 281.410,259.649 282.531 C 242.733 283.834,239.547 283.291,233.915 278.143 C 232.375 276.736,231.586 276.255,231.237 276.513 C 230.965 276.714,229.708 277.720,228.444 278.750 C 216.841 288.203,196.213 289.256,184.603 280.988 L 183.460 280.174 180.413 283.246 C 172.758 290.965,161.880 291.892,153.310 285.556 L 152.241 284.765 150.169 286.636 C 143.166 292.963,132.539 293.737,124.924 288.476 L 122.824 287.024 120.955 288.807 C 109.924 299.332,91.095 293.919,86.883 279.013 C 85.838 275.313,83.401 241.071,83.620 233.171 C 83.873 224.075,85.967 217.521,90.511 211.610 L 92.086 209.561 91.018 209.554 C 86.547 209.526,81.163 207.205,76.648 203.360 L 73.521 200.697 72.175 203.030 C 63.762 217.615,40.849 214.346,35.887 197.854 C 35.074 195.152,30.824 144.277,30.834 137.366 C 30.847 127.809,36.372 120.451,45.589 117.715 C 48.745 116.778,67.065 115.398,73.366 115.623 C 86.201 116.080,97.677 122.623,104.489 133.366 C 106.626 136.737,106.077 136.662,109.944 134.117 C 121.398 126.582,136.821 125.825,149.195 132.189 L 152.634 133.958 153.257 133.028 C 161.202 121.166,180.997 122.770,187.218 135.779 L 188.419 138.291 188.882 136.570 C 190.953 128.879,199.480 121.756,206.616 121.756 C 207.784 121.756,207.836 121.681,208.282 119.333 C 210.412 108.126,222.417 100.813,233.393 104.037 M224.860 116.711 C 222.859 117.728,221.309 119.633,221.024 121.427 C 220.791 122.892,223.391 157.228,224.033 161.169 C 227.333 181.421,251.622 190.661,267.766 177.805 C 273.334 173.372,274.012 168.491,269.555 164.930 C 266.516 162.502,262.831 163.046,258.986 166.492 C 252.826 172.014,242.662 169.629,239.223 161.854 C 238.375 159.939,236.964 146.455,237.556 145.932 C 237.720 145.788,241.980 145.369,247.024 145.000 C 260.319 144.029,263.396 142.246,262.467 136.049 C 261.619 130.393,259.342 129.631,246.379 130.669 C 240.846 131.112,236.280 131.435,236.232 131.387 C 236.184 131.339,235.955 129.112,235.723 126.439 C 234.952 117.556,230.696 113.745,224.860 116.711 M295.805 127.802 C 284.589 130.318,275.721 140.991,275.210 152.590 C 274.341 172.302,296.247 186.255,313.404 176.917 C 323.497 171.424,317.788 159.470,307.397 164.340 C 301.988 166.876,296.198 165.866,292.919 161.814 C 291.416 159.957,290.034 160.238,307.438 158.862 C 327.748 157.257,328.909 156.662,327.253 148.719 C 324.334 134.719,309.363 124.761,295.805 127.802 M60.098 128.817 C 48.018 129.810,48.195 129.777,46.431 131.370 C 43.385 134.123,43.408 132.335,45.994 164.907 C 48.553 197.148,48.352 195.934,51.463 197.906 C 54.549 199.863,58.347 199.311,60.767 196.554 C 62.414 194.679,62.616 193.287,62.133 187.183 C 61.648 181.071,61.251 181.603,66.537 181.275 L 70.829 181.008 79.024 187.923 C 90.304 197.442,92.944 198.281,96.884 193.599 C 100.860 188.874,98.635 184.677,87.830 176.514 C 87.304 176.117,87.584 175.685,89.861 173.392 C 105.036 158.106,97.663 132.833,76.797 128.609 C 73.147 127.870,71.348 127.893,60.098 128.817 M206.405 134.617 C 201.331 136.155,200.916 137.976,202.171 153.176 C 203.026 163.525,202.983 164.911,201.725 167.589 C 198.236 175.011,187.649 176.722,181.746 170.820 C 178.780 167.853,178.442 166.533,177.417 153.897 C 176.464 142.152,176.263 141.198,174.373 139.433 C 170.188 135.525,163.353 137.950,162.833 143.529 C 162.247 149.810,164.593 169.127,166.421 173.073 C 177.170 196.273,211.544 192.100,216.490 166.995 C 217.261 163.078,215.913 141.142,214.747 138.637 C 213.298 135.526,209.479 133.685,206.405 134.617 M127.805 140.741 C 104.927 144.407,97.051 172.502,114.787 187.183 C 123.086 194.052,135.967 194.992,144.904 189.381 L 146.393 188.446 147.619 189.644 C 151.013 192.963,157.315 191.321,158.832 186.722 C 159.282 185.360,158.142 167.875,157.247 162.399 C 155.007 148.702,141.256 138.586,127.805 140.741 M306.168 142.195 C 307.840 142.973,311.295 146.201,310.890 146.606 C 310.774 146.722,292.458 148.293,291.220 148.293 C 290.471 148.293,291.936 145.642,293.527 144.120 C 296.617 141.163,302.145 140.321,306.168 142.195 M75.725 143.190 C 85.581 146.935,86.223 160.618,76.760 165.248 C 74.992 166.113,61.206 167.888,60.657 167.321 C 60.282 166.933,58.764 143.501,59.106 143.384 C 59.757 143.163,67.836 142.554,70.923 142.494 C 72.878 142.456,74.356 142.670,75.725 143.190 M135.437 161.621 C 143.997 165.465,145.902 166.457,145.487 166.854 C 144.735 167.576,126.350 180.293,126.059 180.293 C 125.923 180.293,125.502 175.595,125.124 169.854 C 124.746 164.112,124.340 158.844,124.223 158.146 C 123.931 156.403,123.562 156.288,135.437 161.621 M312.651 195.959 C 310.827 196.862,309.235 198.900,308.850 200.823 C 308.389 203.127,312.964 258.332,313.769 260.188 C 316.126 265.616,324.297 265.473,326.735 259.961 C 327.489 258.256,327.503 257.909,327.051 251.978 C 326.792 248.568,326.650 245.708,326.737 245.621 C 326.823 245.535,331.132 249.048,336.312 253.429 C 346.070 261.682,347.415 262.532,349.959 262.055 C 353.808 261.333,355.963 259.118,356.216 255.623 C 356.482 251.943,356.053 251.378,347.463 244.104 C 343.197 240.492,339.389 237.241,339.000 236.879 C 338.326 236.253,338.623 235.837,345.499 227.806 C 349.462 223.176,352.839 218.977,353.003 218.475 C 354.275 214.580,352.031 210.257,348.183 209.188 C 343.877 207.992,343.053 208.584,333.659 219.624 C 329.259 224.795,325.562 229.036,325.443 229.049 C 325.325 229.062,324.735 222.707,324.133 214.927 C 322.847 198.302,322.681 197.669,319.137 195.861 C 317.229 194.887,314.741 194.925,312.651 195.959 M290.579 198.386 C 284.598 202.007,287.170 211.122,294.173 211.122 C 299.478 211.122,302.655 205.102,299.760 200.536 C 297.800 197.446,293.714 196.489,290.579 198.386 M142.442 209.018 C 139.833 209.719,136.634 211.459,134.136 213.537 L 132.272 215.088 128.673 213.310 C 113.844 205.985,96.780 216.149,96.780 232.306 C 96.780 236.305,99.846 274.375,100.298 275.982 C 102.094 282.380,110.989 282.818,113.773 276.646 C 114.451 275.142,114.428 274.608,112.807 253.924 C 110.957 230.313,110.949 230.643,113.455 228.208 C 116.559 225.193,120.829 225.127,124.037 228.046 C 126.003 229.834,126.061 230.201,127.819 252.316 C 129.713 276.134,129.644 275.784,132.814 277.642 C 136.974 280.080,142.615 277.766,143.457 273.277 C 143.617 272.425,143.049 263.092,142.109 251.122 C 140.353 228.761,140.354 228.659,142.340 226.298 C 146.128 221.797,153.850 223.406,155.275 228.993 C 155.478 229.788,156.364 239.650,157.245 250.907 C 158.759 270.250,158.898 271.463,159.775 272.960 C 162.848 278.203,171.193 277.096,172.877 271.222 C 173.461 269.185,170.039 227.641,169.019 224.390 C 165.451 213.015,153.434 206.064,142.442 209.018 M293.268 214.418 C 291.459 215.073,288.972 217.659,288.651 219.218 C 288.167 221.573,291.522 260.756,292.360 262.534 C 295.558 269.322,305.201 266.692,305.157 259.044 C 305.115 251.831,302.144 219.353,301.393 217.907 C 299.736 214.713,296.405 213.282,293.268 214.418 M259.317 216.203 C 249.735 217.015,248.144 217.363,245.139 219.305 C 235.895 225.280,234.765 237.638,242.766 245.269 C 247.310 249.603,249.259 249.994,262.444 249.215 C 268.978 248.829,269.110 248.869,269.519 251.389 C 269.993 254.311,269.707 254.402,256.899 255.425 C 243.617 256.485,243.221 256.609,241.376 260.247 C 238.514 265.892,242.587 270.373,250.123 269.871 C 270.357 268.522,273.692 267.920,277.471 264.933 C 286.801 257.558,285.415 243.371,274.814 237.737 C 271.435 235.942,269.390 235.719,261.910 236.330 C 251.983 237.141,250.927 236.883,250.927 233.647 C 250.927 230.888,251.542 230.689,262.681 229.830 C 274.299 228.934,274.975 228.786,276.814 226.751 C 279.343 223.952,279.497 220.475,277.212 217.760 C 274.993 215.123,273.553 214.998,259.317 216.203 M219.641 220.086 C 218.120 220.913,216.880 222.399,216.174 224.242 C 215.846 225.098,215.956 228.173,216.638 237.133 C 217.689 250.967,217.581 251.820,214.352 255.272 C 208.028 262.033,196.773 260.010,193.606 251.543 C 193.059 250.080,192.647 246.804,192.033 239.024 C 191.039 226.450,191.112 226.862,189.575 224.997 C 185.993 220.652,179.337 221.934,177.563 227.311 C 176.300 231.138,179.036 254.177,181.283 258.636 C 192.392 280.677,224.656 277.064,230.817 253.089 C 231.905 248.854,230.619 226.123,229.129 223.240 C 227.348 219.797,222.895 218.317,219.641 220.086 M360.891 282.362 C 368.038 285.348,367.049 295.280,359.459 296.726 C 356.501 297.289,352.855 295.350,351.576 292.533 C 348.805 286.432,354.845 279.837,360.891 282.362 " stroke="none" fill="#c70008" fill-rule="evenodd"></path><path id="path2" d="M300.195 114.610 C 300.571 114.709,301.185 114.709,301.561 114.610 C 301.937 114.512,301.629 114.432,300.878 114.432 C 300.127 114.432,299.820 114.512,300.195 114.610 M268.098 121.878 C 268.098 121.945,268.668 122.516,269.366 123.147 L 270.634 124.293 269.488 123.024 C 268.420 121.842,268.098 121.577,268.098 121.878 M328.195 125.854 C 329.361 127.034,330.403 128.000,330.510 128.000 C 330.617 128.000,329.751 127.034,328.585 125.854 C 327.420 124.673,326.378 123.707,326.271 123.707 C 326.163 123.707,327.029 124.673,328.195 125.854 M273.930 125.951 L 272.585 127.415 274.049 126.070 C 275.411 124.818,275.692 124.488,275.394 124.488 C 275.328 124.488,274.670 125.146,273.930 125.951 M155.097 130.829 L 153.951 132.098 155.220 130.951 C 156.402 129.883,156.667 129.561,156.366 129.561 C 156.299 129.561,155.728 130.132,155.097 130.829 M282.713 135.122 L 281.171 136.780 282.829 135.238 C 284.372 133.803,284.667 133.463,284.372 133.463 C 284.308 133.463,283.562 134.210,282.713 135.122 M308.683 144.195 C 309.411 144.946,310.095 145.561,310.202 145.561 C 310.309 145.561,309.801 144.946,309.073 144.195 C 308.345 143.444,307.662 142.829,307.554 142.829 C 307.447 142.829,307.955 143.444,308.683 144.195 M274.843 153.561 C 274.846 154.634,274.922 155.027,275.012 154.434 C 275.101 153.840,275.099 152.962,275.006 152.482 C 274.914 152.002,274.840 152.488,274.843 153.561 M334.418 163.415 L 333.073 164.878 334.537 163.533 C 335.899 162.281,336.179 161.951,335.881 161.951 C 335.816 161.951,335.158 162.610,334.418 163.415 M310.732 163.001 C 311.107 163.099,311.722 163.099,312.098 163.001 C 312.473 162.903,312.166 162.822,311.415 162.822 C 310.663 162.822,310.356 162.903,310.732 163.001 M264.683 163.391 C 265.059 163.489,265.673 163.489,266.049 163.391 C 266.424 163.293,266.117 163.212,265.366 163.212 C 264.615 163.212,264.307 163.293,264.683 163.391 M230.244 174.951 C 230.244 175.019,230.815 175.589,231.512 176.220 L 232.780 177.366 231.634 176.098 C 230.566 174.915,230.244 174.650,230.244 174.951 M61.805 182.036 C 61.684 182.351,61.675 182.834,61.786 183.109 C 61.897 183.384,62.001 183.227,62.018 182.759 C 62.038 182.200,62.350 181.850,62.927 181.739 L 63.805 181.570 62.915 181.517 C 62.425 181.487,61.925 181.721,61.805 182.036 M293.561 197.342 C 293.937 197.440,294.551 197.440,294.927 197.342 C 295.302 197.244,294.995 197.164,294.244 197.164 C 293.493 197.164,293.185 197.244,293.561 197.342 M69.442 206.341 L 68.098 207.805 69.561 206.460 C 70.923 205.208,71.204 204.878,70.906 204.878 C 70.841 204.878,70.182 205.537,69.442 206.341 M147.419 208.276 C 147.905 208.369,148.607 208.366,148.980 208.268 C 149.353 208.170,148.956 208.094,148.098 208.098 C 147.239 208.103,146.934 208.183,147.419 208.276 M117.756 210.617 C 118.239 210.710,119.029 210.710,119.512 210.617 C 119.995 210.524,119.600 210.448,118.634 210.448 C 117.668 210.448,117.273 210.524,117.756 210.617 M162.927 214.634 C 163.765 215.493,164.539 216.195,164.646 216.195 C 164.754 216.195,164.155 215.493,163.317 214.634 C 162.479 213.776,161.705 213.073,161.598 213.073 C 161.490 213.073,162.088 213.776,162.927 214.634 M366.147 216.000 C 366.152 216.859,366.231 217.164,366.325 216.678 C 366.418 216.193,366.415 215.491,366.317 215.117 C 366.219 214.744,366.143 215.141,366.147 216.000 M271.127 215.300 C 271.612 215.394,272.314 215.390,272.687 215.293 C 273.061 215.195,272.663 215.118,271.805 215.123 C 270.946 215.127,270.641 215.207,271.127 215.300 M183.512 222.318 C 183.888 222.416,184.502 222.416,184.878 222.318 C 185.254 222.220,184.946 222.139,184.195 222.139 C 183.444 222.139,183.137 222.220,183.512 222.318 M140.594 231.415 C 140.594 232.380,140.670 232.776,140.763 232.293 C 140.856 231.810,140.856 231.020,140.763 230.537 C 140.670 230.054,140.594 230.449,140.594 231.415 M278.634 240.585 C 279.362 241.337,280.046 241.951,280.153 241.951 C 280.260 241.951,279.753 241.337,279.024 240.585 C 278.296 239.834,277.613 239.220,277.505 239.220 C 277.398 239.220,277.906 239.834,278.634 240.585 M242.146 245.073 C 242.985 245.932,243.758 246.634,243.866 246.634 C 243.973 246.634,243.375 245.932,242.537 245.073 C 241.698 244.215,240.925 243.512,240.817 243.512 C 240.710 243.512,241.308 244.215,242.146 245.073 M231.521 247.024 C 231.521 247.990,231.597 248.385,231.690 247.902 C 231.783 247.420,231.783 246.629,231.690 246.146 C 231.597 245.663,231.521 246.059,231.521 247.024 M356.383 254.829 C 356.383 255.580,356.464 255.888,356.562 255.512 C 356.660 255.137,356.660 254.522,356.562 254.146 C 356.464 253.771,356.383 254.078,356.383 254.829 M195.122 254.561 C 195.122 254.628,195.693 255.199,196.390 255.829 L 197.659 256.976 196.512 255.707 C 195.444 254.525,195.122 254.260,195.122 254.561 M305.261 259.512 C 305.261 260.263,305.342 260.571,305.440 260.195 C 305.538 259.820,305.538 259.205,305.440 258.829 C 305.342 258.454,305.261 258.761,305.261 259.512 M165.171 276.562 C 165.546 276.660,166.161 276.660,166.537 276.562 C 166.912 276.464,166.605 276.383,165.854 276.383 C 165.102 276.383,164.795 276.464,165.171 276.562 M346.635 278.049 C 346.639 278.907,346.719 279.213,346.813 278.727 C 346.906 278.242,346.902 277.539,346.805 277.166 C 346.707 276.793,346.631 277.190,346.635 278.049 M297.463 279.694 C 298.054 279.784,299.020 279.784,299.610 279.694 C 300.200 279.605,299.717 279.532,298.537 279.532 C 297.356 279.532,296.873 279.605,297.463 279.694 M357.761 282.032 C 358.246 282.125,358.949 282.122,359.322 282.024 C 359.695 281.927,359.298 281.850,358.439 281.855 C 357.580 281.859,357.275 281.939,357.761 282.032 M202.634 286.723 C 203.439 286.807,204.756 286.807,205.561 286.723 C 206.366 286.639,205.707 286.570,204.098 286.570 C 202.488 286.570,201.829 286.639,202.634 286.723 M121.146 288.488 L 120.000 289.756 121.268 288.610 C 122.451 287.542,122.716 287.220,122.414 287.220 C 122.347 287.220,121.777 287.790,121.146 288.488 M165.370 289.837 C 165.856 289.930,166.558 289.927,166.931 289.829 C 167.304 289.731,166.907 289.655,166.049 289.659 C 165.190 289.664,164.885 289.744,165.370 289.837 M332.005 292.178 C 332.490 292.272,333.192 292.268,333.566 292.171 C 333.939 292.073,333.541 291.997,332.683 292.001 C 331.824 292.005,331.519 292.085,332.005 292.178 " stroke="none" fill="#d95055" fill-rule="evenodd"></path><path id="path3" d="M300.585 127.098 C 300.961 127.196,301.576 127.196,301.951 127.098 C 302.327 127.000,302.020 126.920,301.268 126.920 C 300.517 126.920,300.210 127.000,300.585 127.098 M89.366 134.756 C 89.366 134.823,89.937 135.394,90.634 136.025 L 91.902 137.171 90.756 135.902 C 89.688 134.720,89.366 134.455,89.366 134.756 M149.854 148.098 C 150.582 148.849,151.265 149.463,151.373 149.463 C 151.480 149.463,150.972 148.849,150.244 148.098 C 149.516 147.346,148.832 146.732,148.725 146.732 C 148.618 146.732,149.126 147.346,149.854 148.098 M98.076 154.537 C 98.076 155.932,98.147 156.502,98.234 155.805 C 98.320 155.107,98.320 153.966,98.234 153.268 C 98.147 152.571,98.076 153.141,98.076 154.537 M217.066 162.341 C 217.066 163.093,217.146 163.400,217.245 163.024 C 217.343 162.649,217.343 162.034,217.245 161.659 C 217.146 161.283,217.066 161.590,217.066 162.341 M259.293 165.951 L 258.146 167.220 259.415 166.073 C 260.112 165.443,260.683 164.872,260.683 164.805 C 260.683 164.504,260.361 164.769,259.293 165.951 M104.697 166.829 C 104.700 167.902,104.776 168.295,104.865 167.702 C 104.955 167.109,104.953 166.231,104.860 165.751 C 104.767 165.271,104.694 165.756,104.697 166.829 M300.390 165.739 C 300.873 165.832,301.663 165.832,302.146 165.739 C 302.629 165.646,302.234 165.570,301.268 165.570 C 300.302 165.570,299.907 165.646,300.390 165.739 M330.258 172.683 C 330.261 173.756,330.337 174.149,330.426 173.556 C 330.516 172.962,330.514 172.084,330.421 171.604 C 330.328 171.124,330.255 171.610,330.258 172.683 M188.585 188.767 C 189.176 188.857,190.141 188.857,190.732 188.767 C 191.322 188.678,190.839 188.605,189.659 188.605 C 188.478 188.605,187.995 188.678,188.585 188.767 M62.537 191.805 C 62.542 192.663,62.622 192.969,62.715 192.483 C 62.808 191.998,62.805 191.295,62.707 190.922 C 62.609 190.549,62.533 190.946,62.537 191.805 M286.920 204.098 C 286.920 204.849,287.000 205.156,287.098 204.780 C 287.196 204.405,287.196 203.790,287.098 203.415 C 287.000 203.039,286.920 203.346,286.920 204.098 M293.561 211.391 C 293.937 211.489,294.551 211.489,294.927 211.391 C 295.302 211.293,294.995 211.212,294.244 211.212 C 293.493 211.212,293.185 211.293,293.561 211.391 M222.146 219.196 C 222.522 219.294,223.137 219.294,223.512 219.196 C 223.888 219.098,223.580 219.017,222.829 219.017 C 222.078 219.017,221.771 219.098,222.146 219.196 M147.419 223.886 C 147.905 223.979,148.607 223.976,148.980 223.878 C 149.353 223.780,148.956 223.704,148.098 223.708 C 147.239 223.713,146.934 223.792,147.419 223.886 M111.310 233.366 C 111.310 234.117,111.390 234.424,111.489 234.049 C 111.587 233.673,111.587 233.059,111.489 232.683 C 111.390 232.307,111.310 232.615,111.310 233.366 M253.756 236.757 C 254.132 236.855,254.746 236.855,255.122 236.757 C 255.498 236.659,255.190 236.578,254.439 236.578 C 253.688 236.578,253.380 236.659,253.756 236.757 M252.585 250.025 C 252.961 250.123,253.576 250.123,253.951 250.025 C 254.327 249.927,254.020 249.847,253.268 249.847 C 252.517 249.847,252.210 249.927,252.585 250.025 M184.976 264.707 C 184.976 264.775,185.546 265.345,186.244 265.976 L 187.512 267.122 186.366 265.854 C 185.298 264.671,184.976 264.406,184.976 264.707 M246.732 270.318 C 247.107 270.416,247.722 270.416,248.098 270.318 C 248.473 270.220,248.166 270.139,247.415 270.139 C 246.663 270.139,246.356 270.220,246.732 270.318 " stroke="none" fill="#eea7a9" fill-rule="evenodd"></path><path id="path4" d="M70.737 127.890 C 71.330 127.979,72.208 127.977,72.688 127.884 C 73.168 127.792,72.683 127.718,71.610 127.721 C 70.537 127.724,70.144 127.800,70.737 127.890 M171.317 180.878 C 172.045 181.629,172.729 182.244,172.836 182.244 C 172.943 182.244,172.435 181.629,171.707 180.878 C 170.979 180.127,170.296 179.512,170.188 179.512 C 170.081 179.512,170.589 180.127,171.317 180.878 M300.005 180.178 C 300.490 180.272,301.192 180.268,301.566 180.171 C 301.939 180.073,301.541 179.997,300.683 180.001 C 299.824 180.005,299.519 180.085,300.005 180.178 M130.244 193.446 C 130.727 193.539,131.517 193.539,132.000 193.446 C 132.483 193.353,132.088 193.277,131.122 193.277 C 130.156 193.277,129.761 193.353,130.244 193.446 M223.780 265.854 L 222.634 267.122 223.902 265.976 C 224.600 265.345,225.171 264.775,225.171 264.707 C 225.171 264.406,224.849 264.671,223.780 265.854 M317.906 277.336 C 318.150 277.513,318.445 278.010,318.563 278.439 C 318.733 279.054,318.763 279.020,318.706 278.274 C 318.667 277.755,318.371 277.258,318.049 277.172 C 317.662 277.067,317.614 277.123,317.906 277.336 M246.537 283.202 C 247.020 283.295,247.810 283.295,248.293 283.202 C 248.776 283.109,248.380 283.033,247.415 283.033 C 246.449 283.033,246.054 283.109,246.537 283.202 " stroke="none" fill="#f7d1d1" fill-rule="evenodd"></path></g></svg>